[img]http://img593.imageshack.us/img593/9603/sharkcd.jpg[/img]
[code]
    Shark Night 2011 TS XViD - IMAGiNE               
******************************************************************************************

Ripper ...........: IMAGiNE               IMDB Rating.......: 5.9/10                             
Video Codec.......: XViD                   Release Date......: 04/09/11
Audio Codec.......: MP3                   Theatre Date......: 02/09/11
Audio Bitrate.....: 128                      Runtime...........: 1h 17mn
Subtitles.........: NIL                        Language..........: ENGLISH
Resolution........: 720 x 272            IMDb URL..........: http://www.imdb.com/title/tt1633356/


DETAILS:

Video
ID                               : 0
Format                           : MPEG-4 Visual
Format profile                   : Advanced Simple@L5
Format settings, BVOP            : 2
Format settings, QPel            : No
Format settings, GMC             : No warppoints
Format settings, Matrix          : Default (MPEG)
Muxing mode                      : Packed bitstream
Codec ID                         : XVID
Codec ID/Hint                    : XviD
Duration                         : 1h 17mn
Bit rate                         : 2 409 Kbps
Width                            : 720 pixels
Height                           : 272 pixels
Display aspect ratio             : 2.647
Frame rate                       : 25.000 fps
Color space                      : YUV
Chroma subsampling               : 4:2:0
Bit depth                        : 8 bits
Scan type                        : Progressive
Compression mode                 : Lossy
Bits/(Pixel*Frame)               : 0.492
Stream size                      : 1.31 GiB (95%)
Writing library                  : XviD 64

Audio
ID                               : 1
Format                           : MPEG Audio
Format version                   : Version 1
Format profile                   : Layer 3
Mode                             : Joint stereo
Mode extension                   : MS Stereo
Codec ID                         : 55
Codec ID/Hint                    : MP3
Duration                         : 1h 17mn
Bit rate mode                    : Constant
Bit rate                         : 128 Kbps
Channel(s)                       : 2 channels
Sampling rate                    : 44.1 KHz
Compression mode                 : Lossy
Stream size                      : 71.3 MiB (5%)
Alignment                        : Split accross interleaves
Interleave, duration             : 40 ms (1.00 video frame)
Interleave, preload duration     : 500 ms
Writing library                  : LAME3.98r
Encoding settings                : -m j -V 4 -q 2 -lowpass 17 -b 128

Plot:
A weekend at a lake house in the Louisiana Gulf turns into a nightmare for seven vacationers as they are subjected to fresh-water shark attacks.

SOURCES:
VIDEO: ............. Chelyusti.2011.D.TS
AUDIO: ............. CHOiCE

NOTES:

Ok for once we never had audio so we've used and muxed choice's line....thanks.
Video was pretty nice....bit over colourful in parts and also tad dark in places.
Changed the brightness,contrast,chroma,rgb levels,sharpness.

Enjoy folks 
[/code]
Screens:
[img]http://img839.imageshack.us/img839/8068/61893511.jpg[/img]
[img]http://img8.imageshack.us/img8/8007/37037575.jpg[/img]
[img]http://img594.imageshack.us/img594/8674/59993807.jpg[/img]
[img]http://img69.imageshack.us/img69/2977/47067309.jpg[/img]